<svg width="15" height="5" viewBox="0 0 15 5" fill="none" xmlns="http://www.w3.org/2000/svg">
<path d="M1.875 4.20509C2.81463 4.20509 3.65199 3.41248 3.66477 2.41532C3.65199 1.44373 2.81463 0.651117 1.875 0.651117C0.884233 0.651117 0.0724432 1.44373 0.0852273 2.41532C0.0724432 3.41248 0.884233 4.20509 1.875 4.20509ZM7.5 4.20509C8.43963 4.20509 9.27699 3.41248 9.28977 2.41532C9.27699 1.44373 8.43963 0.651117 7.5 0.651117C6.50923 0.651117 5.69744 1.44373 5.71023 2.41532C5.69744 3.41248 6.50923 4.20509 7.5 4.20509ZM13.125 4.20509C14.0646 4.20509 14.902 3.41248 14.9148 2.41532C14.902 1.44373 14.0646 0.651117 13.125 0.651117C12.1342 0.651117 11.3224 1.44373 11.3352 2.41532C11.3224 3.41248 12.1342 4.20509 13.125 4.20509Z" fill="#41434F"/>
</svg>
