<svg width="90" height="30" viewBox="0 0 90 30" fill="none" xmlns="http://www.w3.org/2000/svg">
<path d="M0.171875 20H5.10795V14.6023H7.84233C11.9883 14.6023 14.767 12.1609 14.767 8.24574C14.767 4.375 12.0593 1.81818 8.01989 1.81818H0.171875V20ZM5.10795 10.767V5.75994H6.84801C8.57919 5.75994 9.6179 6.68324 9.6179 8.24574C9.6179 9.79936 8.57919 10.767 6.84801 10.767H5.10795ZM16.6491 20H21.5497V12.8977C21.5497 11.3352 22.6239 10.3054 24.071 10.3054C24.5771 10.3054 25.3938 10.3853 25.8821 10.554V6.37251C25.4915 6.2571 25.0653 6.18608 24.6392 6.18608C23.1832 6.18608 22.0469 7.03835 21.5497 8.95597H21.4077V6.36364H16.6491V20ZM33.2773 20.2486C37.7163 20.2486 40.3441 17.4077 40.3441 13.2173C40.3441 9.02699 37.7163 6.18608 33.2773 6.18608C28.8384 6.18608 26.2106 9.02699 26.2106 13.2173C26.2106 17.4077 28.8384 20.2486 33.2773 20.2486ZM33.3129 16.6264C31.9989 16.6264 31.2177 15.3214 31.2177 13.1818C31.2177 11.0423 31.9989 9.73722 33.3129 9.73722C34.5558 9.73722 35.337 11.0423 35.337 13.1818C35.337 15.3214 34.5558 16.6264 33.3129 16.6264ZM42.3327 6.36364V20.3551C42.3327 21.1452 41.9776 21.4915 40.8058 21.4915C40.6282 21.4915 40.4684 21.4826 40.2376 21.456V25.0781C40.6016 25.1048 40.8768 25.1136 41.2319 25.1136C44.8274 25.1136 47.2333 24.0483 47.2333 20.4616V6.36364H42.3327ZM44.783 4.94318C46.1147 4.94318 47.1978 3.93999 47.1978 2.70597C47.1978 1.47195 46.1147 0.46875 44.783 0.46875C43.4513 0.46875 42.3683 1.47195 42.3683 2.70597C42.3683 3.93999 43.4513 4.94318 44.783 4.94318ZM56.2643 20.2486C60.0463 20.2486 62.4788 18.4375 62.9404 15.5966H58.466C58.1819 16.369 57.374 16.804 56.3708 16.804C54.9149 16.804 54.0626 15.8452 54.0626 14.5312V14.3182H62.9404V13.1818C62.9404 8.84055 60.2771 6.18608 56.1578 6.18608C51.9319 6.18608 49.233 8.99148 49.233 13.2173C49.233 17.6296 51.8964 20.2486 56.2643 20.2486ZM54.0626 11.6193C54.0892 10.4386 55.0658 9.63068 56.2643 9.63068C57.4806 9.63068 58.4039 10.4474 58.4305 11.6193H54.0626ZM71.5098 20.2486C75.5492 20.2486 78.0261 17.9315 78.0794 14.3182H73.5339C73.4274 15.7475 72.655 16.5199 71.5808 16.5199C70.2935 16.5199 69.4501 15.419 69.4501 13.1818C69.4501 10.9446 70.2935 9.84375 71.5808 9.84375C72.6639 9.84375 73.4007 10.6161 73.5339 12.0455H78.0794C78.0527 8.49432 75.5225 6.18608 71.5098 6.18608C67.0708 6.18608 64.443 9.02699 64.443 13.2173C64.443 17.4077 67.0708 20.2486 71.5098 20.2486ZM88.2334 6.36364H85.8896V3.09659H80.9891V6.36364H79.249V9.91477H80.9891V16.076C80.9536 18.9347 82.7203 20.3817 86.1027 20.1953C87.2124 20.1332 88.0381 19.9023 88.482 19.7692L87.7718 16.3246C87.5853 16.369 87.1059 16.4666 86.8129 16.4666C86.1737 16.4666 85.8896 16.1825 85.8896 15.6143V9.91477H88.2334V6.36364Z" fill="#10EF7C"/>
</svg>
